<svg height="460.8" viewBox="0 0 460.8 345.6" width="614.4" xmlns="http://www.w3.org/2000/svg" xmlns:xlink="http://www.w3.org/1999/xlink"><path d="M0 345.6h460.8V0H0z" fill="#fff"/><path d="M57.6 307.584h357.12V41.472H57.6z" fill="#fff"/><defs><path d="M0 0v3.5" id="a" stroke="#000" stroke-width=".8"/></defs><use x="73.833" xlink:href="#a" y="307.584" stroke="#000" stroke-width=".8"/><g transform="matrix(.1 0 0 -.1 70.651 322.182)"><defs><path d="M794 531h1031v3560L703 3866v575l1116 225h631V531h1031V0H794v531z" id="b" transform="scale(.01563)"/></defs><use xlink:href="#b"/></g><use x="138.764" xlink:href="#a" y="307.584" stroke="#000" stroke-width=".8"/><g transform="matrix(.1 0 0 -.1 135.582 322.182)"><defs><path d="M2034 2216q-450 0-708-241-257-241-257-662 0-422 257-663 258-241 708-241t709 242q260 243 260 662 0 421-258 662-257 241-711 241zm-631 268q-406 100-633 378-226 279-226 679 0 559 398 884 399 325 1092 325 697 0 1094-325t397-884q0-400-227-679-226-278-629-378 456-106 710-416 255-309 255-755 0-679-414-1042Q2806-91 2034-91q-771 0-1186 362-414 363-414 1042 0 446 256 755 257 310 713 416zm-231 997q0-362 226-565 227-203 636-203 407 0 636 203 230 203 230 565 0 363-230 566-229 203-636 203-409 0-636-203-226-203-226-566z" id="c" transform="scale(.01563)"/></defs><use xlink:href="#c"/></g><use x="203.695" xlink:href="#a" y="307.584" stroke="#000" stroke-width=".8"/><g transform="matrix(.1 0 0 -.1 197.332 322.182)"><defs><path d="M2113 2584q-425 0-674-291-248-290-248-796 0-503 248-796 249-292 674-292t673 292q248 293 248 796 0 506-248 796-248 291-673 291zm1253 1979v-575q-238 112-480 171-242 60-480 60-625 0-955-422-329-422-376-1275 184 272 462 417 279 145 613 145 703 0 1111-427 408-426 408-1160 0-719-425-1154Q2819-91 2113-91q-810 0-1238 620-428 621-428 1799 0 1106 525 1764t1409 658q238 0 480-47t505-140z" id="d" transform="scale(.01563)"/><path d="M2419 4116 825 1625h1594v2491zm-166 550h794V1625h666v-525h-666V0h-628v1100H313v609l1940 2957z" id="e" transform="scale(.01563)"/></defs><use xlink:href="#d"/><use x="63.623" xlink:href="#e"/></g><use x="268.625" xlink:href="#a" y="307.584" stroke="#000" stroke-width=".8"/><g transform="matrix(.1 0 0 -.1 259.082 322.182)"><defs><path d="M691 4666h2478v-532H1269V2991q137 47 274 70 138 23 276 23 781 0 1237-428 457-428 457-1159 0-753-469-1171Q2575-91 1722-91q-294 0-599 50Q819 9 494 109v635q281-153 581-228t634-75q541 0 856 284 316 284 316 772 0 487-316 771-315 285-856 285-253 0-505-56-251-56-513-175v2344z" id="f" transform="scale(.01563)"/><path d="M1228 531h2203V0H469v531q359 372 979 998 621 627 780 809 303 340 423 576 121 236 121 464 0 372-261 606-261 235-680 235-297 0-627-103-329-103-704-313v638q381 153 712 231 332 78 607 78 725 0 1156-363 431-362 431-968 0-288-108-546-107-257-392-607-78-91-497-524-418-433-1181-1211z" id="g" transform="scale(.01563)"/></defs><use xlink:href="#f"/><use x="63.623" xlink:href="#b"/><use x="127.246" xlink:href="#g"/></g><use x="333.556" xlink:href="#a" y="307.584" stroke="#000" stroke-width=".8"/><g transform="matrix(.1 0 0 -.1 320.831 322.182)"><defs><path d="M2034 4250q-487 0-733-480-245-479-245-1442 0-959 245-1439 246-480 733-480 491 0 736 480 246 480 246 1439 0 963-246 1442-245 480-736 480zm0 500q785 0 1199-621 414-620 414-1801 0-1178-414-1799Q2819-91 2034-91q-784 0-1198 620-414 621-414 1799 0 1181 414 1801 414 621 1198 621z" id="h" transform="scale(.01563)"/><path d="M703 97v575q238-113 481-172 244-59 479-59 625 0 954 420 330 420 377 1277-181-269-460-413-278-144-615-144-700 0-1108 423-408 424-408 1159 0 718 425 1152 425 435 1131 435 810 0 1236-621 427-620 427-1801 0-1103-524-1761Q2575-91 1691-91q-238 0-482 47Q966 3 703 97zm1256 1978q425 0 673 290 249 291 249 798 0 503-249 795-248 292-673 292t-673-292q-248-292-248-795 0-507 248-798 248-290 673-290z" id="i" transform="scale(.01563)"/></defs><use xlink:href="#e"/><use x="63.623" xlink:href="#h"/><use x="127.246" xlink:href="#i"/><use x="190.869" xlink:href="#d"/></g><use x="398.487" xlink:href="#a" y="307.584" stroke="#000" stroke-width=".8"/><g transform="matrix(.1 0 0 -.1 382.581 322.182)"><defs><path d="M2597 2516q453-97 707-404 255-306 255-756 0-690-475-1069Q2609-91 1734-91q-293 0-604 58T488 141v609q262-153 574-231 313-78 654-78 593 0 904 234t311 681q0 413-289 645-289 233-804 233h-544v519h569q465 0 712 186t247 536q0 359-255 551-254 193-729 193-260 0-557-57-297-56-653-174v562q360 100 674 150t592 50q719 0 1137-327 419-326 419-882 0-388-222-655t-631-370z" id="j" transform="scale(.01563)"/><path d="M525 4666h3000v-269L1831 0h-659l1594 4134H525v532z" id="k" transform="scale(.01563)"/></defs><use xlink:href="#j"/><use x="63.623" xlink:href="#g"/><use x="127.246" xlink:href="#k"/><use x="190.869" xlink:href="#d"/><use x="254.492" xlink:href="#c"/></g><g transform="matrix(.1 0 0 -.1 211.765 335.86)"><defs><path d="M2194 1759q-697 0-966-159t-269-544q0-306 202-486 202-179 548-179 479 0 768 339t289 901v128h-572zm1147 238V0h-575v531q-197-318-491-470T1556-91q-537 0-855 302-317 302-317 808 0 590 395 890 396 300 1180 300h807v57q0 397-261 614t-733 217q-300 0-585-72-284-72-546-216v532q315 122 612 182 297 61 578 61 760 0 1135-394 375-393 375-1193z" id="l" transform="scale(.01563)"/><path d="M2631 2963q-97 56-211 82-114 27-251 27-488 0-749-317t-261-911V0H581v3500h578v-544q182 319 472 473 291 155 707 155 59 0 131-8 72-7 159-23l3-590z" id="m" transform="scale(.01563)"/><path d="M2059-325q-243-625-475-815-231-191-618-191H506v481h338q237 0 368 113 132 112 291 531l103 262L191 3500h609L1894 763l1094 2737h609L2059-325z" id="n" transform="scale(.01563)"/><path d="M2834 3397v-544q-243 125-506 187-262 63-544 63-428 0-642-131t-214-394q0-200 153-314t616-217l197-44q612-131 870-370t258-667q0-488-386-773Q2250-91 1575-91q-281 0-586 55T347 128v594q319-166 628-249 309-82 613-82 406 0 624 139 219 139 219 392 0 234-158 359-157 125-692 241l-200 47q-534 112-772 345-237 233-237 639 0 494 350 762 350 269 994 269 318 0 599-47 282-46 519-140z" id="o" transform="scale(.01563)"/><path d="M603 3500h575V0H603v3500zm0 1363h575v-729H603v729z" id="p" transform="scale(.01563)"/><path d="M353 3500h2731v-525L922 459h2162V0H275v525l2163 2516H353v459z" id="q" transform="scale(.01563)"/><path d="M3597 1894v-281H953q38-594 358-905t892-311q331 0 642 81t618 244V178Q3153 47 2828-22t-659-69q-838 0-1327 487-489 488-489 1320 0 859 464 1363 464 505 1252 505 706 0 1117-455 411-454 411-1235zm-575 169q-6 471-264 752-258 282-683 282-481 0-770-272t-333-766l2050 4z" id="r" transform="scale(.01563)"/></defs><use xlink:href="#l"/><use x="61.279" xlink:href="#m"/><use x="100.643" xlink:href="#m"/><use x="141.756" xlink:href="#l"/><use x="203.035" xlink:href="#n"/><use x="262.215" xlink:href="#DejaVuSans-20"/><use x="294.002" xlink:href="#o"/><use x="346.102" xlink:href="#p"/><use x="373.885" xlink:href="#q"/><use x="426.375" xlink:href="#r"/></g><defs><path d="M0 0h-3.5" id="s" stroke="#000" stroke-width=".8"/></defs><use x="57.6" xlink:href="#s" y="304.227" stroke="#000" stroke-width=".8"/><use xlink:href="#d" transform="matrix(.1 0 0 -.1 44.237 308.027)"/><use x="57.6" xlink:href="#s" y="272.565" stroke="#000" stroke-width=".8"/><use xlink:href="#c" transform="matrix(.1 0 0 -.1 44.237 276.364)"/><use x="57.6" xlink:href="#s" y="240.902" stroke="#000" stroke-width=".8"/><g transform="matrix(.1 0 0 -.1 37.875 244.7)"><use xlink:href="#b"/><use x="63.623" xlink:href="#h"/></g><use x="57.6" xlink:href="#s" y="209.239" stroke="#000" stroke-width=".8"/><g transform="matrix(.1 0 0 -.1 37.875 213.038)"><use xlink:href="#b"/><use x="63.623" xlink:href="#g"/></g><use x="57.6" xlink:href="#s" y="177.576" stroke="#000" stroke-width=".8"/><g transform="matrix(.1 0 0 -.1 37.875 181.375)"><use xlink:href="#b"/><use x="63.623" xlink:href="#e"/></g><use x="57.6" xlink:href="#s" y="145.913" stroke="#000" stroke-width=".8"/><g transform="matrix(.1 0 0 -.1 37.875 149.712)"><use xlink:href="#b"/><use x="63.623" xlink:href="#d"/></g><use x="57.6" xlink:href="#s" y="114.25" stroke="#000" stroke-width=".8"/><g transform="matrix(.1 0 0 -.1 37.875 118.05)"><use xlink:href="#b"/><use x="63.623" xlink:href="#c"/></g><use x="57.6" xlink:href="#s" y="82.587" stroke="#000" stroke-width=".8"/><g transform="matrix(.1 0 0 -.1 37.875 86.386)"><use xlink:href="#g"/><use x="63.623" xlink:href="#h"/></g><use x="57.6" xlink:href="#s" y="50.924" stroke="#000" stroke-width=".8"/><g transform="matrix(.1 0 0 -.1 37.875 54.724)"><use xlink:href="#g"/><use x="63.623" xlink:href="#g"/></g><g transform="matrix(0 -.1 -.1 0 31.795 194.283)"><defs><path d="M603 4863h575V0H603v4863z" id="t" transform="scale(.01563)"/><path d="M3513 2113V0h-575v2094q0 497-194 743-194 247-581 247-466 0-735-297-269-296-269-809V0H581v3500h578v-544q207 316 486 472 280 156 646 156 603 0 912-373 310-373 310-1098z" id="u" transform="scale(.01563)"/><path d="M1984 4856q-418-718-622-1422-203-703-203-1425 0-721 205-1429t620-1424h-500Q1016-109 783 600T550 2009q0 697 231 1403 232 707 703 1444h500z" id="v" transform="scale(.01563)"/><path d="M1172 4494v-994h1184v-447H1172V1153q0-428 117-550t477-122h590V0h-590q-666 0-919 248-253 249-253 905v1900H172v447h422v994h578z" id="w" transform="scale(.01563)"/><path d="M3328 2828q216 388 516 572t706 184q547 0 844-383 297-382 297-1088V0h-578v2094q0 503-179 746-178 244-543 244-447 0-707-297-259-296-259-809V0h-578v2094q0 506-178 748t-550 242q-441 0-701-298-259-298-259-808V0H581v3500h578v-544q197 322 472 475t653 153q382 0 649-194 267-193 395-562z" id="x" transform="scale(.01563)"/><path d="M513 4856h500q468-737 701-1444 233-706 233-1403 0-700-233-1409T1013-844H513q415 716 620 1424t205 1429q0 722-205 1425-205 704-620 1422z" id="y" transform="scale(.01563)"/></defs><use xlink:href="#t"/><use x="27.783" xlink:href="#u"/><use x="91.162" xlink:href="#v"/><use x="130.176" xlink:href="#w"/><use x="169.385" xlink:href="#p"/><use x="197.168" xlink:href="#x"/><use x="294.58" xlink:href="#r"/><use x="356.104" xlink:href="#y"/></g><path clip-path="url(#z)" d="m73.833 295.417 64.93-3.23 64.932-40.984 64.93-60.436 64.931-66.58 64.931-70.619" fill="none" stroke="#1f77b4" stroke-linecap="square" stroke-width="1.5"/><path clip-path="url(#z)" d="m73.833 295.467 64.93-2.651 64.932-22.291 64.93-36.287 64.931-36.51 64.931-36.154" fill="none" stroke="#ff7f0e" stroke-linecap="square" stroke-width="1.5"/><path clip-path="url(#z)" d="m73.833 295.446 64.93-2.795 64.932-21.841 64.93-37.16 64.931-42.347 64.931-58.66" fill="none" stroke="#2ca02c" stroke-linecap="square" stroke-width="1.5"/><path clip-path="url(#z)" d="m73.833 295.477 64.93-5.8 64.932-22.996 64.93-34.516 64.931-35.957 64.931-35.36" fill="none" stroke="#d62728" stroke-linecap="square" stroke-width="1.5"/><path clip-path="url(#z)" d="m73.833 295.47 64.93-3.008 64.932-20.663 64.93-34.067 64.931-36.203 64.931-35.822" fill="none" stroke="#9467bd" stroke-linecap="square" stroke-width="1.5"/><path clip-path="url(#z)" d="m73.833 295.488 64.93-3.011 64.932-28.165 64.93-56.52 64.931-62.957 64.931-65.17" fill="none" stroke="#8c564b" stroke-linecap="square" stroke-width="1.5"/><path d="M57.6 307.584V41.472m357.12 266.112V41.472M57.6 307.584h357.12M57.6 41.472h357.12" fill="none" stroke="#000" stroke-linecap="square" stroke-width=".8"/><g transform="matrix(.12 0 0 -.12 147.21 35.472)"><defs><path d="M3425 4513v-616q-359 172-678 256-319 85-616 85-515 0-795-200t-280-569q0-310 186-468 186-157 705-254l381-78q706-135 1042-474t336-907q0-679-455-1029Q2797-91 1919-91q-331 0-705 75-373 75-773 222v650q384-215 753-325 369-109 725-109 540 0 834 212 294 213 294 607 0 343-211 537t-692 291l-385 75q-706 140-1022 440-315 300-315 835 0 619 436 975t1201 356q329 0 669-60 341-59 697-177z" id="A" transform="scale(.01563)"/><path d="M1959 3097q-462 0-731-361t-269-989q0-628 267-989 268-361 733-361 460 0 728 362 269 363 269 988 0 622-269 986-268 364-728 364zm0 487q750 0 1178-488 429-487 429-1349 0-859-429-1349Q2709-91 1959-91q-753 0-1180 489-426 490-426 1349 0 862 426 1349 427 488 1180 488z" id="B" transform="scale(.01563)"/><path d="M2906 1791q0 625-258 968-257 344-723 344-462 0-720-344-258-343-258-968 0-622 258-966t720-344q466 0 723 344 258 344 258 966zm575-1357q0-893-397-1329-396-436-1215-436-303 0-572 45t-522 139v559q253-137 500-202 247-66 503-66 566 0 847 295t281 892v285q-178-310-456-463T1784 0Q1141 0 747 490 353 981 353 1791q0 812 394 1302 394 491 1037 491 388 0 666-153t456-462v531h575V434z" id="C" transform="scale(.01563)"/><path d="m2188 4044-857-2322h1716l-859 2322zm-357 622h716L4325 0h-656l-425 1197H1141L716 0H50l1781 4666z" id="D" transform="scale(.01563)"/><path d="M3513 2113V0h-575v2094q0 497-194 743-194 247-581 247-466 0-735-297-269-296-269-809V0H581v4863h578V2956q207 316 486 472 280 156 646 156 603 0 912-373 310-373 310-1098z" id="E" transform="scale(.01563)"/><path d="M1259 2228V519h1013q509 0 754 211 246 211 246 645 0 438-246 645-245 208-754 208H1259zm0 1919V2741h935q462 0 688 173 227 174 227 530 0 353-227 528-226 175-688 175h-935zm-631 519h1613q722 0 1112-300 391-300 391-853 0-429-200-682t-588-315q466-100 724-418 258-317 258-792 0-625-425-966Q3088 0 2303 0H628v4666z" id="F" transform="scale(.01563)"/><path d="M3122 3366v-538q-244 135-489 202t-495 67q-560 0-870-355-309-354-309-995t309-996q310-354 870-354 250 0 495 67t489 202V134Q2881 22 2623-34q-257-57-548-57-791 0-1257 497-465 497-465 1341 0 856 470 1346 471 491 1290 491 265 0 518-55 253-54 491-163z" id="G" transform="scale(.01563)"/><path d="M581 4863h578V1991l1716 1509h734L1753 1863 3688 0h-750L1159 1709V0H581v4863z" id="H" transform="scale(.01563)"/></defs><use xlink:href="#A"/><use x="63.477" xlink:href="#B"/><use x="124.658" xlink:href="#m"/><use x="165.771" xlink:href="#w"/><use x="204.98" xlink:href="#p"/><use x="232.764" xlink:href="#u"/><use x="296.143" xlink:href="#C"/><use x="359.619" xlink:href="#DejaVuSans-20"/><use x="391.406" xlink:href="#D"/><use x="459.814" xlink:href="#t"/><use x="487.598" xlink:href="#C"/><use x="551.074" xlink:href="#B"/><use x="612.256" xlink:href="#m"/><use x="653.369" xlink:href="#p"/><use x="681.152" xlink:href="#w"/><use x="720.361" xlink:href="#E"/><use x="783.74" xlink:href="#x"/><use x="881.152" xlink:href="#DejaVuSans-20"/><use x="912.939" xlink:href="#F"/><use x="981.543" xlink:href="#r"/><use x="1043.066" xlink:href="#u"/><use x="1106.445" xlink:href="#G"/><use x="1161.426" xlink:href="#E"/><use x="1224.805" xlink:href="#x"/><use x="1322.217" xlink:href="#l"/><use x="1383.496" xlink:href="#m"/><use x="1424.609" xlink:href="#H"/></g><path d="M64.6 137.54h98.584q2 0 2-2V48.473q0-2-2-2H64.6q-2 0-2 2v87.069q0 2 2 2z" fill="#fff" opacity=".8" stroke="#ccc"/><path d="M66.6 54.57h20" fill="none" stroke="#1f77b4" stroke-linecap="square" stroke-width="1.5"/><g transform="matrix(.1 0 0 -.1 94.6 58.07)"><defs><path d="M544 1381v2119h575V1403q0-497 193-746 194-248 582-248 465 0 735 297 271 297 271 810v1984h575V0h-575v538q-209-319-486-474-276-155-642-155-603 0-916 375-312 375-312 1097zm1447 2203z" id="I" transform="scale(.01563)"/><path d="M3116 1747q0 634-261 995t-717 361q-457 0-718-361t-261-995q0-634 261-995t718-361q456 0 717 361t261 995zM1159 2969q182 312 458 463 277 152 661 152 638 0 1036-506 399-506 399-1331T3314 415Q2916-91 2278-91q-384 0-661 152-276 152-458 464V0H581v4863h578V2969z" id="J" transform="scale(.01563)"/></defs><use xlink:href="#F"/><use x="68.604" xlink:href="#I"/><use x="131.982" xlink:href="#J"/><use x="195.459" xlink:href="#J"/><use x="258.936" xlink:href="#t"/><use x="286.719" xlink:href="#r"/><use x="348.242" xlink:href="#A"/><use x="411.719" xlink:href="#B"/><use x="472.9" xlink:href="#m"/><use x="514.014" xlink:href="#w"/></g><path d="M66.6 69.249h20" fill="none" stroke="#ff7f0e" stroke-linecap="square" stroke-width="1.5"/><g transform="matrix(.1 0 0 -.1 94.6 72.749)"><defs><path d="M628 4666h631V2753h2294v1913h631V0h-631v2222H1259V0H628v4666z" id="K" transform="scale(.01563)"/><path d="M1159 525v-1856H581v4831h578v-531q182 312 458 463 277 152 661 152 638 0 1036-506 399-506 399-1331T3314 415Q2916-91 2278-91q-384 0-661 152-276 152-458 464zm1957 1222q0 634-261 995t-717 361q-457 0-718-361t-261-995q0-634 261-995t718-361q456 0 717 361t261 995z" id="L" transform="scale(.01563)"/></defs><use xlink:href="#K"/><use x="75.195" xlink:href="#r"/><use x="136.719" xlink:href="#l"/><use x="197.998" xlink:href="#L"/><use x="261.475" xlink:href="#A"/><use x="324.951" xlink:href="#B"/><use x="386.133" xlink:href="#m"/><use x="427.246" xlink:href="#w"/></g><path d="M66.6 83.927h20" fill="none" stroke="#2ca02c" stroke-linecap="square" stroke-width="1.5"/><g transform="matrix(.1 0 0 -.1 94.6 87.427)"><defs><path d="M628 4666h631V0H628v4666z" id="M" transform="scale(.01563)"/></defs><use xlink:href="#M"/><use x="29.492" xlink:href="#u"/><use x="92.871" xlink:href="#o"/><use x="144.971" xlink:href="#r"/><use x="206.494" xlink:href="#m"/><use x="247.607" xlink:href="#w"/><use x="286.816" xlink:href="#p"/><use x="314.6" xlink:href="#B"/><use x="375.781" xlink:href="#u"/><use x="439.16" xlink:href="#A"/><use x="502.637" xlink:href="#B"/><use x="563.818" xlink:href="#m"/><use x="604.932" xlink:href="#w"/></g><path d="M66.6 98.605h20" fill="none" stroke="#d62728" stroke-linecap="square" stroke-width="1.5"/><g transform="matrix(.1 0 0 -.1 94.6 102.105)"><defs><path d="M628 4666h941l1190-3175 1197 3175h941V0h-616v4097L3078 897h-634L1241 4097V0H628v4666z" id="N" transform="scale(.01563)"/></defs><use xlink:href="#N"/><use x="86.279" xlink:href="#r"/><use x="147.803" xlink:href="#m"/><use x="187.166" xlink:href="#C"/><use x="250.643" xlink:href="#r"/><use x="312.166" xlink:href="#A"/><use x="375.643" xlink:href="#B"/><use x="436.824" xlink:href="#m"/><use x="477.938" xlink:href="#w"/></g><path d="M66.6 113.283h20" fill="none" stroke="#9467bd" stroke-linecap="square" stroke-width="1.5"/><g transform="matrix(.1 0 0 -.1 94.6 116.783)"><defs><path d="M2522 4238q-688 0-1093-513-404-512-404-1397 0-881 404-1394 405-512 1093-512 687 0 1089 512 402 513 402 1394 0 885-402 1397-402 513-1089 513zM3406 84l832-909h-763L2784-78q-103-6-158-9-54-4-104-4-984 0-1574 658-589 658-589 1761 0 1106 589 1764 590 658 1574 658 981 0 1568-658 588-658 588-1764 0-812-327-1391-326-578-945-853z" id="O" transform="scale(.01563)"/></defs><use xlink:href="#O"/><use x="78.711" xlink:href="#I"/><use x="142.09" xlink:href="#p"/><use x="169.873" xlink:href="#G"/><use x="224.854" xlink:href="#H"/><use x="282.764" xlink:href="#A"/><use x="346.24" xlink:href="#B"/><use x="407.422" xlink:href="#m"/><use x="448.535" xlink:href="#w"/></g><path d="M66.6 127.961h20" fill="none" stroke="#8c564b" stroke-linecap="square" stroke-width="1.5"/><g transform="matrix(.1 0 0 -.1 94.6 131.461)"><use xlink:href="#A"/><use x="63.477" xlink:href="#r"/><use x="125" xlink:href="#t"/><use x="152.783" xlink:href="#r"/><use x="214.307" xlink:href="#G"/><use x="269.287" xlink:href="#w"/><use x="308.496" xlink:href="#p"/><use x="336.279" xlink:href="#B"/><use x="397.461" xlink:href="#u"/><use x="460.84" xlink:href="#A"/><use x="524.316" xlink:href="#B"/><use x="585.498" xlink:href="#m"/><use x="626.611" xlink:href="#w"/></g><defs><clipPath id="z"><path d="M57.6 41.472h357.12v266.112H57.6z"/></clipPath></defs></svg>